<svg xmlns="http://www.w3.org/2000/svg" width="1200" height="1000"><rect width="1200" height="1000" x="0" y="0" fill="#FFFFFF" id="background"/><g id="viz"><g transform="translate(0,0)"><g id="pie" transform="translate(125,101.66666666666666)"><path fill="rgb(255, 173, 36)" stroke="#FFFFFF" d="M5.000641096518358e-15,-81.66666666666666L0,0Z"/><path fill="rgb(73, 62, 174)" stroke="#FFFFFF" d="M5.000641096518358e-15,-81.66666666666666A81.66666666666666,81.66666666666666,0,1,1,-56.63032089803308,-58.842596810730925L0,0Z"/><path fill="rgb(50, 149, 247)" stroke="#FFFFFF" d="M-56.63032089803308,-58.842596810730925L0,0Z"/><path fill="rgb(203, 47, 13)" stroke="#FFFFFF" d="M-56.63032089803308,-58.842596810730925A81.66666666666666,81.66666666666666,0,0,1,-46.98435725118733,-66.79756446261528L0,0Z"/><path fill="rgb(35, 23, 27)" stroke="#FFFFFF" d="M-46.98435725118733,-66.79756446261528L0,0Z"/><path fill="rgb(255, 130, 29)" stroke="#FFFFFF" d="M-46.98435725118733,-66.79756446261528A81.66666666666666,81.66666666666666,0,0,1,-32.45288661583078,-74.94167461929628L0,0Z"/><path fill="rgb(149, 251, 81)" stroke="#FFFFFF" d="M-32.45288661583078,-74.94167461929628A81.66666666666666,81.66666666666666,0,0,1,-1.5001923289555075e-14,-81.66666666666666L0,0Z"/><path fill="rgb(197, 236, 60)" stroke="#FFFFFF" d="M-1.5001923289555075e-14,-81.66666666666666L0,0Z"/><path fill="rgb(236, 209, 46)" stroke="#FFFFFF" d="M-1.5001923289555075e-14,-81.66666666666666L0,0Z"/><path fill="rgb(240, 86, 22)" stroke="#FFFFFF" d="M-1.5001923289555075e-14,-81.66666666666666L0,0Z"/><path fill="rgb(38, 188, 225)" stroke="#FFFFFF" d="M-1.5001923289555075e-14,-81.66666666666666L0,0Z"/><path fill="rgb(144, 12, 0)" stroke="#FFFFFF" d="M-1.5001923289555075e-14,-81.66666666666666L0,0Z"/><path fill="rgb(163, 19, 2)" stroke="#FFFFFF" d="M-1.5001923289555075e-14,-81.66666666666666L0,0Z"/><path fill="rgb(63, 243, 147)" stroke="#FFFFFF" d="M-1.5001923289555075e-14,-81.66666666666666L0,0Z"/><path fill="rgb(41, 220, 188)" stroke="#FFFFFF" d="M-1.5001923289555075e-14,-81.66666666666666L0,0Z"/><path fill="rgb(101, 253, 110)" stroke="#FFFFFF" d="M-1.5001923289555075e-14,-81.66666666666666L0,0Z"/><path fill="rgb(69, 105, 238)" stroke="#FFFFFF" d="M-1.5001923289555075e-14,-81.66666666666666L0,0Z"/></g><text y="16" x="125" style="font-family: Arial, sans-serif; font-size: 12px; fill: black; font-weight: bold; dominant-baseline: auto; text-anchor: middle;">10k Formation</text></g><g transform="translate(250,0)"><g id="pie" transform="translate(125,101.66666666666666)"><path fill="rgb(255, 173, 36)" stroke="#FFFFFF" d="M1.561937863796072e-15,-25.508381108472317A25.508381108472317,25.508381108472317,0,0,1,12.754190554236168,22.090906049352082L0,0Z"/><path fill="rgb(73, 62, 174)" stroke="#FFFFFF" d="M12.754190554236168,22.090906049352082L0,0Z"/><path fill="rgb(50, 149, 247)" stroke="#FFFFFF" d="M12.754190554236168,22.090906049352082L0,0Z"/><path fill="rgb(203, 47, 13)" stroke="#FFFFFF" d="M12.754190554236168,22.090906049352082L0,0Z"/><path fill="rgb(35, 23, 27)" stroke="#FFFFFF" d="M12.754190554236168,22.090906049352082L0,0Z"/><path fill="rgb(255, 130, 29)" stroke="#FFFFFF" d="M12.754190554236168,22.090906049352082A25.508381108472317,25.508381108472317,0,0,1,-25.508381108472317,3.123875727592144e-15L0,0Z"/><path fill="rgb(149, 251, 81)" stroke="#FFFFFF" d="M-25.508381108472317,3.123875727592144e-15L0,0Z"/><path fill="rgb(197, 236, 60)" stroke="#FFFFFF" d="M-25.508381108472317,3.123875727592144e-15L0,0Z"/><path fill="rgb(236, 209, 46)" stroke="#FFFFFF" d="M-25.508381108472317,3.123875727592144e-15L0,0Z"/><path fill="rgb(240, 86, 22)" stroke="#FFFFFF" d="M-25.508381108472317,3.123875727592144e-15A25.508381108472317,25.508381108472317,0,0,1,-22.090906049352085,-12.754190554236162L0,0Z"/><path fill="rgb(38, 188, 225)" stroke="#FFFFFF" d="M-22.090906049352085,-12.754190554236162L0,0Z"/><path fill="rgb(144, 12, 0)" stroke="#FFFFFF" d="M-22.090906049352085,-12.754190554236162L0,0Z"/><path fill="rgb(163, 19, 2)" stroke="#FFFFFF" d="M-22.090906049352085,-12.754190554236162L0,0Z"/><path fill="rgb(63, 243, 147)" stroke="#FFFFFF" d="M-22.090906049352085,-12.754190554236162A25.508381108472317,25.508381108472317,0,0,1,-4.685813591388215e-15,-25.508381108472317L0,0Z"/><path fill="rgb(41, 220, 188)" stroke="#FFFFFF" d="M-4.685813591388215e-15,-25.508381108472317L0,0Z"/><path fill="rgb(101, 253, 110)" stroke="#FFFFFF" d="M-4.685813591388215e-15,-25.508381108472317L0,0Z"/><path fill="rgb(69, 105, 238)" stroke="#FFFFFF" d="M-4.685813591388215e-15,-25.508381108472317L0,0Z"/></g><text y="72.15828555819434" x="125" style="font-family: Arial, sans-serif; font-size: 12px; fill: black; font-weight: bold; dominant-baseline: auto; text-anchor: middle;">Chan</text></g><g transform="translate(500,0)"><g id="pie" transform="translate(125,101.66666666666666)"><path fill="rgb(255, 173, 36)" stroke="#FFFFFF" d="M6.376584627055246e-16,-10.413752980034525A10.413752980034525,10.413752980034525,0,1,1,6.376584627055246e-16,10.413752980034525L0,0Z"/><path fill="rgb(73, 62, 174)" stroke="#FFFFFF" d="M6.376584627055246e-16,10.413752980034525L0,0Z"/><path fill="rgb(50, 149, 247)" stroke="#FFFFFF" d="M6.376584627055246e-16,10.413752980034525L0,0Z"/><path fill="rgb(203, 47, 13)" stroke="#FFFFFF" d="M6.376584627055246e-16,10.413752980034525L0,0Z"/><path fill="rgb(35, 23, 27)" stroke="#FFFFFF" d="M6.376584627055246e-16,10.413752980034525L0,0Z"/><path fill="rgb(255, 130, 29)" stroke="#FFFFFF" d="M6.376584627055246e-16,10.413752980034525A10.413752980034525,10.413752980034525,0,1,1,-1.9129753881165735e-15,-10.413752980034525L0,0Z"/><path fill="rgb(149, 251, 81)" stroke="#FFFFFF" d="M-1.9129753881165735e-15,-10.413752980034525L0,0Z"/><path fill="rgb(197, 236, 60)" stroke="#FFFFFF" d="M-1.9129753881165735e-15,-10.413752980034525L0,0Z"/><path fill="rgb(236, 209, 46)" stroke="#FFFFFF" d="M-1.9129753881165735e-15,-10.413752980034525L0,0Z"/><path fill="rgb(240, 86, 22)" stroke="#FFFFFF" d="M-1.9129753881165735e-15,-10.413752980034525L0,0Z"/><path fill="rgb(38, 188, 225)" stroke="#FFFFFF" d="M-1.9129753881165735e-15,-10.413752980034525L0,0Z"/><path fill="rgb(144, 12, 0)" stroke="#FFFFFF" d="M-1.9129753881165735e-15,-10.413752980034525L0,0Z"/><path fill="rgb(163, 19, 2)" stroke="#FFFFFF" d="M-1.9129753881165735e-15,-10.413752980034525L0,0Z"/><path fill="rgb(63, 243, 147)" stroke="#FFFFFF" d="M-1.9129753881165735e-15,-10.413752980034525L0,0Z"/><path fill="rgb(41, 220, 188)" stroke="#FFFFFF" d="M-1.9129753881165735e-15,-10.413752980034525L0,0Z"/><path fill="rgb(101, 253, 110)" stroke="#FFFFFF" d="M-1.9129753881165735e-15,-10.413752980034525L0,0Z"/><path fill="rgb(69, 105, 238)" stroke="#FFFFFF" d="M-1.9129753881165735e-15,-10.413752980034525L0,0Z"/></g><text y="87.25291368663213" x="125" style="font-family: Arial, sans-serif; font-size: 12px; fill: black; font-weight: bold; dominant-baseline: auto; text-anchor: middle;">Ex-Chan</text></g><g transform="translate(750,0)"><g id="pie" transform="translate(125,101.66666666666666)"><path fill="rgb(255, 173, 36)" stroke="#FFFFFF" d="M6.376584627055246e-16,-10.413752980034525A10.413752980034525,10.413752980034525,0,1,1,6.376584627055246e-16,10.413752980034525L0,0Z"/><path fill="rgb(73, 62, 174)" stroke="#FFFFFF" d="M6.376584627055246e-16,10.413752980034525L0,0Z"/><path fill="rgb(50, 149, 247)" stroke="#FFFFFF" d="M6.376584627055246e-16,10.413752980034525L0,0Z"/><path fill="rgb(203, 47, 13)" stroke="#FFFFFF" d="M6.376584627055246e-16,10.413752980034525L0,0Z"/><path fill="rgb(35, 23, 27)" stroke="#FFFFFF" d="M6.376584627055246e-16,10.413752980034525L0,0Z"/><path fill="rgb(255, 130, 29)" stroke="#FFFFFF" d="M6.376584627055246e-16,10.413752980034525L0,0Z"/><path fill="rgb(149, 251, 81)" stroke="#FFFFFF" d="M6.376584627055246e-16,10.413752980034525L0,0Z"/><path fill="rgb(197, 236, 60)" stroke="#FFFFFF" d="M6.376584627055246e-16,10.413752980034525L0,0Z"/><path fill="rgb(236, 209, 46)" stroke="#FFFFFF" d="M6.376584627055246e-16,10.413752980034525L0,0Z"/><path fill="rgb(240, 86, 22)" stroke="#FFFFFF" d="M6.376584627055246e-16,10.413752980034525A10.413752980034525,10.413752980034525,0,1,1,-1.9129753881165735e-15,-10.413752980034525L0,0Z"/><path fill="rgb(38, 188, 225)" stroke="#FFFFFF" d="M-1.9129753881165735e-15,-10.413752980034525L0,0Z"/><path fill="rgb(144, 12, 0)" stroke="#FFFFFF" d="M-1.9129753881165735e-15,-10.413752980034525L0,0Z"/><path fill="rgb(163, 19, 2)" stroke="#FFFFFF" d="M-1.9129753881165735e-15,-10.413752980034525L0,0Z"/><path fill="rgb(63, 243, 147)" stroke="#FFFFFF" d="M-1.9129753881165735e-15,-10.413752980034525L0,0Z"/><path fill="rgb(41, 220, 188)" stroke="#FFFFFF" d="M-1.9129753881165735e-15,-10.413752980034525L0,0Z"/><path fill="rgb(101, 253, 110)" stroke="#FFFFFF" d="M-1.9129753881165735e-15,-10.413752980034525L0,0Z"/><path fill="rgb(69, 105, 238)" stroke="#FFFFFF" d="M-1.9129753881165735e-15,-10.413752980034525L0,0Z"/></g><text y="87.25291368663213" x="125" style="font-family: Arial, sans-serif; font-size: 12px; fill: black; font-weight: bold; dominant-baseline: auto; text-anchor: middle;">Ex-Jie</text></g><g transform="translate(0,333.3333333333333)"><g id="pie" transform="translate(125,101.66666666666666)"><path fill="rgb(255, 173, 36)" stroke="#FFFFFF" d="M3.8787250040727294e-15,-63.344386426735426A63.344386426735426,63.344386426735426,0,0,1,26.091631838422156,-57.72120961819684L0,0Z"/><path fill="rgb(73, 62, 174)" stroke="#FFFFFF" d="M26.091631838422156,-57.72120961819684L0,0Z"/><path fill="rgb(50, 149, 247)" stroke="#FFFFFF" d="M26.091631838422156,-57.72120961819684A63.344386426735426,63.344386426735426,0,0,1,43.83044310019194,-45.731865798591905L0,0Z"/><path fill="rgb(203, 47, 13)" stroke="#FFFFFF" d="M43.83044310019194,-45.731865798591905A63.344386426735426,63.344386426735426,0,0,1,58.77656110619775,23.618364810227355L0,0Z"/><path fill="rgb(35, 23, 27)" stroke="#FFFFFF" d="M58.77656110619775,23.618364810227355A63.344386426735426,63.344386426735426,0,0,1,-30.892736979295872,55.30054334007604L0,0Z"/><path fill="rgb(255, 130, 29)" stroke="#FFFFFF" d="M-30.892736979295872,55.30054334007604L0,0Z"/><path fill="rgb(149, 251, 81)" stroke="#FFFFFF" d="M-30.892736979295872,55.30054334007604L0,0Z"/><path fill="rgb(197, 236, 60)" stroke="#FFFFFF" d="M-30.892736979295872,55.30054334007604A63.344386426735426,63.344386426735426,0,0,1,-56.5618406090506,28.5178799824941L0,0Z"/><path fill="rgb(236, 209, 46)" stroke="#FFFFFF" d="M-56.5618406090506,28.5178799824941L0,0Z"/><path fill="rgb(240, 86, 22)" stroke="#FFFFFF" d="M-56.5618406090506,28.5178799824941L0,0Z"/><path fill="rgb(38, 188, 225)" stroke="#FFFFFF" d="M-56.5618406090506,28.5178799824941A63.344386426735426,63.344386426735426,0,0,1,-63.28731099382122,-2.6884119756724147L0,0Z"/><path fill="rgb(144, 12, 0)" stroke="#FFFFFF" d="M-63.28731099382122,-2.6884119756724147A63.344386426735426,63.344386426735426,0,0,1,-58.77656110619775,-23.618364810227348L0,0Z"/><path fill="rgb(163, 19, 2)" stroke="#FFFFFF" d="M-58.77656110619775,-23.618364810227348A63.344386426735426,63.344386426735426,0,0,1,-47.550876583776876,-41.850034980797844L0,0Z"/><path fill="rgb(63, 243, 147)" stroke="#FFFFFF" d="M-47.550876583776876,-41.850034980797844A63.344386426735426,63.344386426735426,0,0,1,-35.4712592423284,-52.48143537998094L0,0Z"/><path fill="rgb(41, 220, 188)" stroke="#FFFFFF" d="M-35.4712592423284,-52.48143537998094A63.344386426735426,63.344386426735426,0,0,1,-15.961395691439076,-61.300449748438986L0,0Z"/><path fill="rgb(101, 253, 110)" stroke="#FFFFFF" d="M-15.961395691439076,-61.300449748438986L0,0Z"/><path fill="rgb(69, 105, 238)" stroke="#FFFFFF" d="M-15.961395691439076,-61.300449748438986A63.344386426735426,63.344386426735426,0,0,1,-6.789729204559012e-14,-63.344386426735426L0,0Z"/></g><text y="34.32228023993123" x="125" style="font-family: Arial, sans-serif; font-size: 12px; fill: black; font-weight: bold; dominant-baseline: auto; text-anchor: middle;">Jie</text></g><g transform="translate(250,333.3333333333333)"><g id="pie" transform="translate(125,101.66666666666666)"><path fill="rgb(255, 173, 36)" stroke="#FFFFFF" d="M1.6870857137145728e-15,-27.552200600029128A27.552200600029128,27.552200600029128,0,1,1,-21.541177840377316,-17.178516092884237L0,0Z"/><path fill="rgb(73, 62, 174)" stroke="#FFFFFF" d="M-21.541177840377316,-17.178516092884237L0,0Z"/><path fill="rgb(50, 149, 247)" stroke="#FFFFFF" d="M-21.541177840377316,-17.178516092884237A27.552200600029128,27.552200600029128,0,0,1,-5.0612571411437184e-15,-27.552200600029128L0,0Z"/><path fill="rgb(203, 47, 13)" stroke="#FFFFFF" d="M-5.0612571411437184e-15,-27.552200600029128L0,0Z"/><path fill="rgb(35, 23, 27)" stroke="#FFFFFF" d="M-5.0612571411437184e-15,-27.552200600029128L0,0Z"/><path fill="rgb(255, 130, 29)" stroke="#FFFFFF" d="M-5.0612571411437184e-15,-27.552200600029128L0,0Z"/><path fill="rgb(149, 251, 81)" stroke="#FFFFFF" d="M-5.0612571411437184e-15,-27.552200600029128L0,0Z"/><path fill="rgb(197, 236, 60)" stroke="#FFFFFF" d="M-5.0612571411437184e-15,-27.552200600029128L0,0Z"/><path fill="rgb(236, 209, 46)" stroke="#FFFFFF" d="M-5.0612571411437184e-15,-27.552200600029128L0,0Z"/><path fill="rgb(240, 86, 22)" stroke="#FFFFFF" d="M-5.0612571411437184e-15,-27.552200600029128L0,0Z"/><path fill="rgb(38, 188, 225)" stroke="#FFFFFF" d="M-5.0612571411437184e-15,-27.552200600029128L0,0Z"/><path fill="rgb(144, 12, 0)" stroke="#FFFFFF" d="M-5.0612571411437184e-15,-27.552200600029128L0,0Z"/><path fill="rgb(163, 19, 2)" stroke="#FFFFFF" d="M-5.0612571411437184e-15,-27.552200600029128L0,0Z"/><path fill="rgb(63, 243, 147)" stroke="#FFFFFF" d="M-5.0612571411437184e-15,-27.552200600029128L0,0Z"/><path fill="rgb(41, 220, 188)" stroke="#FFFFFF" d="M-5.0612571411437184e-15,-27.552200600029128L0,0Z"/><path fill="rgb(101, 253, 110)" stroke="#FFFFFF" d="M-5.0612571411437184e-15,-27.552200600029128L0,0Z"/><path fill="rgb(69, 105, 238)" stroke="#FFFFFF" d="M-5.0612571411437184e-15,-27.552200600029128L0,0Z"/></g><text y="70.11446606663753" x="125" style="font-family: Arial, sans-serif; font-size: 12px; fill: black; font-weight: bold; dominant-baseline: auto; text-anchor: middle;">King Zhou Victim</text></g><g transform="translate(500,333.3333333333333)"><g id="pie" transform="translate(125,101.66666666666666)"><path fill="rgb(255, 173, 36)" stroke="#FFFFFF" d="M4.157024583767679e-15,-67.88936347462732A67.88936347462732,67.88936347462732,0,1,1,-59.612377011408554,32.485845841531514L0,0Z"/><path fill="rgb(73, 62, 174)" stroke="#FFFFFF" d="M-59.612377011408554,32.485845841531514L0,0Z"/><path fill="rgb(50, 149, 247)" stroke="#FFFFFF" d="M-59.612377011408554,32.485845841531514A67.88936347462732,67.88936347462732,0,0,1,-64.5666215196745,-20.97896705095766L0,0Z"/><path fill="rgb(203, 47, 13)" stroke="#FFFFFF" d="M-64.5666215196745,-20.97896705095766A67.88936347462732,67.88936347462732,0,0,1,-41.90662553011419,-53.411613059978286L0,0Z"/><path fill="rgb(35, 23, 27)" stroke="#FFFFFF" d="M-41.90662553011419,-53.411613059978286L0,0Z"/><path fill="rgb(255, 130, 29)" stroke="#FFFFFF" d="M-41.90662553011419,-53.411613059978286A67.88936347462732,67.88936347462732,0,0,1,-37.84760318081537,-56.36066541886811L0,0Z"/><path fill="rgb(149, 251, 81)" stroke="#FFFFFF" d="M-37.84760318081537,-56.36066541886811L0,0Z"/><path fill="rgb(197, 236, 60)" stroke="#FFFFFF" d="M-37.84760318081537,-56.36066541886811L0,0Z"/><path fill="rgb(236, 209, 46)" stroke="#FFFFFF" d="M-37.84760318081537,-56.36066541886811A67.88936347462732,67.88936347462732,0,0,1,-10.000218519661134,-67.14879971041246L0,0Z"/><path fill="rgb(240, 86, 22)" stroke="#FFFFFF" d="M-10.000218519661134,-67.14879971041246L0,0Z"/><path fill="rgb(38, 188, 225)" stroke="#FFFFFF" d="M-10.000218519661134,-67.14879971041246L0,0Z"/><path fill="rgb(144, 12, 0)" stroke="#FFFFFF" d="M-10.000218519661134,-67.14879971041246A67.88936347462732,67.88936347462732,0,0,1,-5.013801081261677,-67.70396939402889L0,0Z"/><path fill="rgb(163, 19, 2)" stroke="#FFFFFF" d="M-5.013801081261677,-67.70396939402889A67.88936347462732,67.88936347462732,0,0,1,-7.276894131664493e-14,-67.88936347462732L0,0Z"/><path fill="rgb(63, 243, 147)" stroke="#FFFFFF" d="M-7.276894131664493e-14,-67.88936347462732L0,0Z"/><path fill="rgb(41, 220, 188)" stroke="#FFFFFF" d="M-7.276894131664493e-14,-67.88936347462732L0,0Z"/><path fill="rgb(101, 253, 110)" stroke="#FFFFFF" d="M-7.276894131664493e-14,-67.88936347462732L0,0Z"/><path fill="rgb(69, 105, 238)" stroke="#FFFFFF" d="M-7.276894131664493e-14,-67.88936347462732L0,0Z"/></g><text y="29.77730319203934" x="125" style="font-family: Arial, sans-serif; font-size: 12px; fill: black; font-weight: bold; dominant-baseline: auto; text-anchor: middle;">Shang</text></g><g transform="translate(750,333.3333333333333)"><g id="pie" transform="translate(125,101.66666666666666)"><path fill="rgb(255, 173, 36)" stroke="#FFFFFF" d="M9.017852461201313e-16,-14.72727069956806A14.72727069956806,14.72727069956806,0,1,1,-14.72727069956806,1.8035704922402626e-15L0,0Z"/><path fill="rgb(73, 62, 174)" stroke="#FFFFFF" d="M-14.72727069956806,1.8035704922402626e-15L0,0Z"/><path fill="rgb(50, 149, 247)" stroke="#FFFFFF" d="M-14.72727069956806,1.8035704922402626e-15L0,0Z"/><path fill="rgb(203, 47, 13)" stroke="#FFFFFF" d="M-14.72727069956806,1.8035704922402626e-15L0,0Z"/><path fill="rgb(35, 23, 27)" stroke="#FFFFFF" d="M-14.72727069956806,1.8035704922402626e-15L0,0Z"/><path fill="rgb(255, 130, 29)" stroke="#FFFFFF" d="M-14.72727069956806,1.8035704922402626e-15L0,0Z"/><path fill="rgb(149, 251, 81)" stroke="#FFFFFF" d="M-14.72727069956806,1.8035704922402626e-15L0,0Z"/><path fill="rgb(197, 236, 60)" stroke="#FFFFFF" d="M-14.72727069956806,1.8035704922402626e-15L0,0Z"/><path fill="rgb(236, 209, 46)" stroke="#FFFFFF" d="M-14.72727069956806,1.8035704922402626e-15L0,0Z"/><path fill="rgb(240, 86, 22)" stroke="#FFFFFF" d="M-14.72727069956806,1.8035704922402626e-15L0,0Z"/><path fill="rgb(38, 188, 225)" stroke="#FFFFFF" d="M-14.72727069956806,1.8035704922402626e-15L0,0Z"/><path fill="rgb(144, 12, 0)" stroke="#FFFFFF" d="M-14.72727069956806,1.8035704922402626e-15L0,0Z"/><path fill="rgb(163, 19, 2)" stroke="#FFFFFF" d="M-14.72727069956806,1.8035704922402626e-15L0,0Z"/><path fill="rgb(63, 243, 147)" stroke="#FFFFFF" d="M-14.72727069956806,1.8035704922402626e-15L0,0Z"/><path fill="rgb(41, 220, 188)" stroke="#FFFFFF" d="M-14.72727069956806,1.8035704922402626e-15L0,0Z"/><path fill="rgb(101, 253, 110)" stroke="#FFFFFF" d="M-14.72727069956806,1.8035704922402626e-15A14.72727069956806,14.72727069956806,0,0,1,-2.7053557383603935e-15,-14.72727069956806L0,0Z"/><path fill="rgb(69, 105, 238)" stroke="#FFFFFF" d="M-2.7053557383603935e-15,-14.72727069956806L0,0Z"/></g><text y="82.93939596709859" x="125" style="font-family: Arial, sans-serif; font-size: 12px; fill: black; font-weight: bold; dominant-baseline: auto; text-anchor: middle;">Unaligned</text></g><g transform="translate(0,666.6666666666666)"><g id="pie" transform="translate(125,101.66666666666666)"><path fill="rgb(255, 173, 36)" stroke="#FFFFFF" d="M1.1044568552822325e-15,-18.0371492588916A18.0371492588916,18.0371492588916,0,0,1,15.620629470051785,-9.0185746294458L0,0Z"/><path fill="rgb(73, 62, 174)" stroke="#FFFFFF" d="M15.620629470051785,-9.0185746294458L0,0Z"/><path fill="rgb(50, 149, 247)" stroke="#FFFFFF" d="M15.620629470051785,-9.0185746294458L0,0Z"/><path fill="rgb(203, 47, 13)" stroke="#FFFFFF" d="M15.620629470051785,-9.0185746294458L0,0Z"/><path fill="rgb(35, 23, 27)" stroke="#FFFFFF" d="M15.620629470051785,-9.0185746294458L0,0Z"/><path fill="rgb(255, 130, 29)" stroke="#FFFFFF" d="M15.620629470051785,-9.0185746294458L0,0Z"/><path fill="rgb(149, 251, 81)" stroke="#FFFFFF" d="M15.620629470051785,-9.0185746294458A18.0371492588916,18.0371492588916,0,0,1,15.620629470051787,9.018574629445796L0,0Z"/><path fill="rgb(197, 236, 60)" stroke="#FFFFFF" d="M15.620629470051787,9.018574629445796L0,0Z"/><path fill="rgb(236, 209, 46)" stroke="#FFFFFF" d="M15.620629470051787,9.018574629445796L0,0Z"/><path fill="rgb(240, 86, 22)" stroke="#FFFFFF" d="M15.620629470051787,9.018574629445796L0,0Z"/><path fill="rgb(38, 188, 225)" stroke="#FFFFFF" d="M15.620629470051787,9.018574629445796L0,0Z"/><path fill="rgb(144, 12, 0)" stroke="#FFFFFF" d="M15.620629470051787,9.018574629445796A18.0371492588916,18.0371492588916,0,0,1,1.1044568552822325e-15,18.0371492588916L0,0Z"/><path fill="rgb(163, 19, 2)" stroke="#FFFFFF" d="M1.1044568552822325e-15,18.0371492588916L0,0Z"/><path fill="rgb(63, 243, 147)" stroke="#FFFFFF" d="M1.1044568552822325e-15,18.0371492588916L0,0Z"/><path fill="rgb(41, 220, 188)" stroke="#FFFFFF" d="M1.1044568552822325e-15,18.0371492588916L0,0Z"/><path fill="rgb(101, 253, 110)" stroke="#FFFFFF" d="M1.1044568552822325e-15,18.0371492588916A18.0371492588916,18.0371492588916,0,1,1,-3.3133705658466974e-15,-18.0371492588916L0,0Z"/><path fill="rgb(69, 105, 238)" stroke="#FFFFFF" d="M-3.3133705658466974e-15,-18.0371492588916L0,0Z"/></g><text y="79.62951740777505" x="125" style="font-family: Arial, sans-serif; font-size: 12px; fill: black; font-weight: bold; dominant-baseline: auto; text-anchor: middle;">Unclear</text></g><g transform="translate(250,666.6666666666666)"><g id="pie" transform="translate(125,101.66666666666666)"><path fill="rgb(255, 173, 36)" stroke="#FFFFFF" d="M1.0082265557154959e-15,-16.46558920363753A16.46558920363753,16.46558920363753,0,1,1,-15.659705906758603,-5.088146886320652L0,0Z"/><path fill="rgb(73, 62, 174)" stroke="#FFFFFF" d="M-15.659705906758603,-5.088146886320652L0,0Z"/><path fill="rgb(50, 149, 247)" stroke="#FFFFFF" d="M-15.659705906758603,-5.088146886320652L0,0Z"/><path fill="rgb(203, 47, 13)" stroke="#FFFFFF" d="M-15.659705906758603,-5.088146886320652L0,0Z"/><path fill="rgb(35, 23, 27)" stroke="#FFFFFF" d="M-15.659705906758603,-5.088146886320652L0,0Z"/><path fill="rgb(255, 130, 29)" stroke="#FFFFFF" d="M-15.659705906758603,-5.088146886320652L0,0Z"/><path fill="rgb(149, 251, 81)" stroke="#FFFFFF" d="M-15.659705906758603,-5.088146886320652L0,0Z"/><path fill="rgb(197, 236, 60)" stroke="#FFFFFF" d="M-15.659705906758603,-5.088146886320652L0,0Z"/><path fill="rgb(236, 209, 46)" stroke="#FFFFFF" d="M-15.659705906758603,-5.088146886320652A16.46558920363753,16.46558920363753,0,0,1,-3.0246796671464875e-15,-16.46558920363753L0,0Z"/><path fill="rgb(240, 86, 22)" stroke="#FFFFFF" d="M-3.0246796671464875e-15,-16.46558920363753L0,0Z"/><path fill="rgb(38, 188, 225)" stroke="#FFFFFF" d="M-3.0246796671464875e-15,-16.46558920363753L0,0Z"/><path fill="rgb(144, 12, 0)" stroke="#FFFFFF" d="M-3.0246796671464875e-15,-16.46558920363753L0,0Z"/><path fill="rgb(163, 19, 2)" stroke="#FFFFFF" d="M-3.0246796671464875e-15,-16.46558920363753L0,0Z"/><path fill="rgb(63, 243, 147)" stroke="#FFFFFF" d="M-3.0246796671464875e-15,-16.46558920363753L0,0Z"/><path fill="rgb(41, 220, 188)" stroke="#FFFFFF" d="M-3.0246796671464875e-15,-16.46558920363753L0,0Z"/><path fill="rgb(101, 253, 110)" stroke="#FFFFFF" d="M-3.0246796671464875e-15,-16.46558920363753L0,0Z"/><path fill="rgb(69, 105, 238)" stroke="#FFFFFF" d="M-3.0246796671464875e-15,-16.46558920363753L0,0Z"/></g><text y="81.20107746302912" x="125" style="font-family: Arial, sans-serif; font-size: 12px; fill: black; font-weight: bold; dominant-baseline: auto; text-anchor: middle;">Unknown</text></g><g transform="translate(500,666.6666666666666)"><g id="pie" transform="translate(125,101.66666666666666)"><path fill="rgb(255, 173, 36)" stroke="#FFFFFF" d="M2.9908833028587724e-15,-48.84483109646213A48.84483109646213,48.84483109646213,0,1,1,-26.40750941247188,41.0908867204411L0,0Z"/><path fill="rgb(73, 62, 174)" stroke="#FFFFFF" d="M-26.40750941247188,41.0908867204411L0,0Z"/><path fill="rgb(50, 149, 247)" stroke="#FFFFFF" d="M-26.40750941247188,41.0908867204411A48.84483109646213,48.84483109646213,0,0,1,-36.91446031055688,-31.986561941262686L0,0Z"/><path fill="rgb(203, 47, 13)" stroke="#FFFFFF" d="M-36.91446031055688,-31.986561941262686L0,0Z"/><path fill="rgb(35, 23, 27)" stroke="#FFFFFF" d="M-36.91446031055688,-31.986561941262686L0,0Z"/><path fill="rgb(255, 130, 29)" stroke="#FFFFFF" d="M-36.91446031055688,-31.986561941262686A48.84483109646213,48.84483109646213,0,0,1,-26.40750941247187,-41.090886720441105L0,0Z"/><path fill="rgb(149, 251, 81)" stroke="#FFFFFF" d="M-26.40750941247187,-41.090886720441105L0,0Z"/><path fill="rgb(197, 236, 60)" stroke="#FFFFFF" d="M-26.40750941247187,-41.090886720441105L0,0Z"/><path fill="rgb(236, 209, 46)" stroke="#FFFFFF" d="M-26.40750941247187,-41.090886720441105L0,0Z"/><path fill="rgb(240, 86, 22)" stroke="#FFFFFF" d="M-26.40750941247187,-41.090886720441105A48.84483109646213,48.84483109646213,0,0,1,-8.972649908576317e-15,-48.84483109646213L0,0Z"/><path fill="rgb(38, 188, 225)" stroke="#FFFFFF" d="M-8.972649908576317e-15,-48.84483109646213L0,0Z"/><path fill="rgb(144, 12, 0)" stroke="#FFFFFF" d="M-8.972649908576317e-15,-48.84483109646213L0,0Z"/><path fill="rgb(163, 19, 2)" stroke="#FFFFFF" d="M-8.972649908576317e-15,-48.84483109646213L0,0Z"/><path fill="rgb(63, 243, 147)" stroke="#FFFFFF" d="M-8.972649908576317e-15,-48.84483109646213L0,0Z"/><path fill="rgb(41, 220, 188)" stroke="#FFFFFF" d="M-8.972649908576317e-15,-48.84483109646213L0,0Z"/><path fill="rgb(101, 253, 110)" stroke="#FFFFFF" d="M-8.972649908576317e-15,-48.84483109646213L0,0Z"/><path fill="rgb(69, 105, 238)" stroke="#FFFFFF" d="M-8.972649908576317e-15,-48.84483109646213L0,0Z"/></g><text y="48.82183557020453" x="125" style="font-family: Arial, sans-serif; font-size: 12px; fill: black; font-weight: bold; dominant-baseline: auto; text-anchor: middle;">Zhou</text></g></g><g id="legend" transform="translate(1000,20)"><g transform="translate(5,0)"><g class="legendSize" transform="translate(0,0)"><g class="legendCells" transform="translate(82,15.5)"><g class="cell" transform="translate(0, 10)"><circle class="swatch" r="10" fill="none" stroke="#ccc"/><text class="label" transform="translate( 87,&#10;          5)" font-family="&quot;Arial&quot;, sans-serif" font-size="10px"><tspan x="0" dy="0em">2.0</tspan></text></g><g class="cell" transform="translate(0, 111.66666666666666)"><circle class="swatch" r="82" fill="none" stroke="#ccc"/><text class="label" transform="translate( 87,&#10;          5)" font-family="&quot;Arial&quot;, sans-serif" font-size="10px"><tspan x="0" dy="0em">123.0</tspan></text></g></g><text class="legendTitle" font-family="&quot;Arial&quot;, sans-serif" font-size="12px" font-weight="bold"><tspan x="0" dy="0em">Area</tspan></text></g><g class="legendColor" transform="translate(0,241.66665649414062)"><g class="legendCells" transform="translate(0,15.5)"><g class="cell" transform="translate(0, 0)"><rect class="swatch" height="15" width="15" style="fill: rgb(35, 23, 27);"/><text class="label" transform="translate( 20, 12.5)" font-family="&quot;Arial&quot;, sans-serif" font-size="10px"><tspan x="0" dy="0em">28 Lunar Mansions</tspan></text></g><g class="cell" transform="translate(0, 20.5)"><rect class="swatch" height="15" width="15" style="fill: rgb(73, 62, 174);"/><text class="label" transform="translate( 20, 12.5)" font-family="&quot;Arial&quot;, sans-serif" font-size="10px"><tspan x="0" dy="0em">36 Heavenly Star and 72</tspan><tspan x="0" dy="1.2em">Earthly Stars</tspan></text></g><g class="cell" transform="translate(0, 56.60000038146973)"><rect class="swatch" height="15" width="15" style="fill: rgb(69, 105, 238);"/><text class="label" transform="translate( 20, 12.5)" font-family="&quot;Arial&quot;, sans-serif" font-size="10px"><tspan x="0" dy="0em">Celestial Maidens of</tspan><tspan x="0" dy="1.2em">Sensitivity and Harmony</tspan></text></g><g class="cell" transform="translate(0, 92.70000076293945)"><rect class="swatch" height="15" width="15" style="fill: rgb(50, 149, 247);"/><text class="label" transform="translate( 20, 12.5)" font-family="&quot;Arial&quot;, sans-serif" font-size="10px"><tspan x="0" dy="0em">Dipper Mansion Leadership</tspan></text></g><g class="cell" transform="translate(0, 113.20000076293945)"><rect class="swatch" height="15" width="15" style="fill: rgb(38, 188, 225);"/><text class="label" transform="translate( 20, 12.5)" font-family="&quot;Arial&quot;, sans-serif" font-size="10px"><tspan x="0" dy="0em">Fire Bureau</tspan></text></g><g class="cell" transform="translate(0, 133.70000076293945)"><rect class="swatch" height="15" width="15" style="fill: rgb(41, 220, 188);"/><text class="label" transform="translate( 20, 12.5)" font-family="&quot;Arial&quot;, sans-serif" font-size="10px"><tspan x="0" dy="0em">Four Marshals of Lingxiao</tspan><tspan x="0" dy="1.2em">Palace</tspan></text></g><g class="cell" transform="translate(0, 169.80000114440918)"><rect class="swatch" height="15" width="15" style="fill: rgb(63, 243, 147);"/><text class="label" transform="translate( 20, 12.5)" font-family="&quot;Arial&quot;, sans-serif" font-size="10px"><tspan x="0" dy="0em">Jinlong Ruyi Gods</tspan></text></g><g class="cell" transform="translate(0, 190.30000114440918)"><rect class="swatch" height="15" width="15" style="fill: rgb(101, 253, 110);"/><text class="label" transform="translate( 20, 12.5)" font-family="&quot;Arial&quot;, sans-serif" font-size="10px"><tspan x="0" dy="0em">Misc.</tspan></text></g><g class="cell" transform="translate(0, 210.80000114440918)"><rect class="swatch" height="15" width="15" style="fill: rgb(149, 251, 81);"/><text class="label" transform="translate( 20, 12.5)" font-family="&quot;Arial&quot;, sans-serif" font-size="10px"><tspan x="0" dy="0em">Nine Luminaries</tspan></text></g><g class="cell" transform="translate(0, 231.30000114440918)"><rect class="swatch" height="15" width="15" style="fill: rgb(197, 236, 60);"/><text class="label" transform="translate( 20, 12.5)" font-family="&quot;Arial&quot;, sans-serif" font-size="10px"><tspan x="0" dy="0em">Plague Bureau</tspan></text></g><g class="cell" transform="translate(0, 251.80000114440918)"><rect class="swatch" height="15" width="15" style="fill: rgb(236, 209, 46);"/><text class="label" transform="translate( 20, 12.5)" font-family="&quot;Arial&quot;, sans-serif" font-size="10px"><tspan x="0" dy="0em">Pox Gods</tspan></text></g><g class="cell" transform="translate(0, 272.3000011444092)"><rect class="swatch" height="15" width="15" style="fill: rgb(255, 173, 36);"/><text class="label" transform="translate( 20, 12.5)" font-family="&quot;Arial&quot;, sans-serif" font-size="10px"><tspan x="0" dy="0em">Stellar Gods</tspan></text></g><g class="cell" transform="translate(0, 292.8000011444092)"><rect class="swatch" height="15" width="15" style="fill: rgb(255, 130, 29);"/><text class="label" transform="translate( 20, 12.5)" font-family="&quot;Arial&quot;, sans-serif" font-size="10px"><tspan x="0" dy="0em">Taisui Mansion</tspan></text></g><g class="cell" transform="translate(0, 313.3000011444092)"><rect class="swatch" height="15" width="15" style="fill: rgb(240, 86, 22);"/><text class="label" transform="translate( 20, 12.5)" font-family="&quot;Arial&quot;, sans-serif" font-size="10px"><tspan x="0" dy="0em">Three Mountains and Five</tspan><tspan x="0" dy="1.2em">Mounts</tspan></text></g><g class="cell" transform="translate(0, 349.4000015258789)"><rect class="swatch" height="15" width="15" style="fill: rgb(203, 47, 13);"/><text class="label" transform="translate( 20, 12.5)" font-family="&quot;Arial&quot;, sans-serif" font-size="10px"><tspan x="0" dy="0em">Thunder Bureau</tspan></text></g><g class="cell" transform="translate(0, 369.9000015258789)"><rect class="swatch" height="15" width="15" style="fill: rgb(163, 19, 2);"/><text class="label" transform="translate( 20, 12.5)" font-family="&quot;Arial&quot;, sans-serif" font-size="10px"><tspan x="0" dy="0em">Water Bureau</tspan></text></g><g class="cell" transform="translate(0, 390.4000015258789)"><rect class="swatch" height="15" width="15" style="fill: rgb(144, 12, 0);"/><text class="label" transform="translate( 20, 12.5)" font-family="&quot;Arial&quot;, sans-serif" font-size="10px"><tspan x="0" dy="0em">Western Sect Affiliated</tspan></text></g></g><text class="legendTitle" font-family="&quot;Arial&quot;, sans-serif" font-size="12px" font-weight="bold"><tspan x="0" dy="0em">Arcs colors</tspan></text></g></g></g></svg>